<?xml version="1.0" encoding="UTF-8"?>
<!DOCTYPE svg  PUBLIC '-//W3C//DTD SVG 1.1//EN'  'http://www.w3.org/Graphics/SVG/1.1/DTD/svg11.dtd'>
<svg enable-background="new 0 0 850.39 850.39" version="1.1" viewBox="0 0 850.39 850.39" xml:space="preserve" xmlns="http://www.w3.org/2000/svg">
	<path d="m461.94 343.38c7.418-4.18-40.063 45.366-59.521 54.639-19.035 9.072-72.979 14.048-85.091 9.466-14.358-5.432 4.07-15.493 6.771-19.825 5.596-8.97 48.34-2.753 59.436-11.072 17.787-13.336 41.896-43.921 41.896-43.921s23.442 18.074 36.509 10.713z" fill="#F5B6A1"/>
	<path d="m437.38 594.33v41.484l1.275 86.867 31.39 8.639s2.451-69.893 13.418-96.521c3.537-8.59 8.299-28.521 8.299-28.521l-54.382-11.948z" fill="#F5B6A1"/>
	<path d="m510.37 603.23l-0.927 39.735 0.109 90.79 30.932 3.916s5.326-65.859 11.645-89.28c2.418-8.967 10.073-35.763 10.073-35.763l-51.832-9.398z" fill="#F5B6A1"/>
	<path d="m511.85 93.771c-2.741-10.723-4.807-24.88-20.213-23.408 5.624 2.64 6.059 8.935 5.455 14.43-1.856-8.435-22.804-14.198-29.702-9.448 6.339 1.004 10.999 5.846 12.973 11.621-4.021-6.326-32.126-12.771-35.597-5.199 5.948 2.4 10.738 4.877 15.049 9.702-9.312-5.133-25.549-3.252-33.389 4.471-4.225 4.161-4.269 9.789-10.14 12.445-5.381 2.436-14.203-0.111-18.172-4.179-2.384 16.816 17.379 16.765 29.045 17.404-7.319 9.17-27.321 11.473-37.089 5.057 0.912 12.759 25.607 20.984 35.753 14.795-7.546 13.979-20.14 12.275-34.276 12.992-3.58 14.494 24.925 10.565 32.671 10.926-4.471 11.195-25.062 12.355-34.86 9.469-1.41 13.845 25.575 11.676 33.243 9.512-4.447 6.524-8.027 22.537-18.54 21.762 9.947 7.99 27.238 2.18 38.461 0.197 15.026-2.652 28.245-9.447 41.57-17.106 10.503-6.036 21.28-12.651 29.951-20.842 8.135-7.686 14.203-16.518 19.698-25.082 0.023 19.438 2.498 36.07 15.51 51.194 13.953 16.216 27.349 26.905 49.954 25.412-8.443-5.822-14.897-15.681-14.268-25.926 8.375 8.439 26.203 6.494 33.387-2.242-13.385-6.203-21.185-11.368-23.207-26.749 8.449 5.776 20.306 1.846 27.422-3.865-17.771-13.378-17.721-46.43-42.05-52.874 3.534-5.779 13.64-3.24 19.608-3.67-6.281-8.998-27.734-14.249-37.069-8.133 4.061-7.139 11.841-9.58 19.552-10.09-4.841-5.873-11.662-4.974-18.881-4.981-12.127-0.015-13.322 4.421-22.035 10.853 0.479-1.417 1.991-7.507 3.903-10.123 3.546-4.847 9.837-4.287 12.931-7.902-9.012-0.192-15.445-3.197-24.045 1.497-7.682 4.193-16.565 8.859-21.145 16.622"/>
		<ellipse transform="matrix(.9838 -.1793 .1793 .9838 -29.98 83.858)" cx="448.91" cy="207.78" rx="7.663" ry="17.987" fill="#F5B6A1"/>
	<path d="m452.47 190.32c0.178 2.973-2.303 8.752-2.097 11.721 0.216 3.076 3.844 11.72 3.844 11.72s3.003 23.276 5.766 30.539c6.694 17.597 45.759 23.226 52.404 22.55 8.345-0.846 24.161-7.538 31.442-11.703 19.807-11.332 30.51-27.426 29.173-39.827-0.394-3.646-3.146-14.324-3.146-14.324s4.71-38.417-1.571-48.916c-7.564-12.645-36.293-28.786-51.009-29.524-13.713-0.688-42.283 5.998-52.928 14.674-7.268 5.924-20.438 31.443-20.438 31.443s8.214 15.838 8.56 21.647z" fill="#F5B6A1"/>
	<path d="m634.12 358.06c4.645 20.989 2.804 85.618 2.804 85.618s-9.233 58.691-18.701 67.525c-3.737 3.487-14.981-1.226-17.437-5.709-7.796-14.227 8.037-61.264 8.037-61.264l-6.547-56.007s-7.192-38.41-2.513-46.449c1.32-2.271 17.048 4.772 19.524 3.896 2.678-0.947 14.202 9.537 14.833 12.39z" fill="#F5B6A1"/>
	<ellipse cx="513.17" cy="224.93" rx="2.008" ry="1.397" fill="#F15825" opacity=".2"/>
	<ellipse cx="502.6" cy="226.33" rx="2.009" ry="1.398" fill="#F9A474"/>
	<ellipse cx="475.62" cy="237.02" rx="14.803" ry="14.49" fill="#F15825" opacity=".1"/>
	<ellipse cx="548.01" cy="222.53" rx="14.802" ry="14.49" fill="#F15825" opacity=".1"/>
	<path d="m555.67 187.95v-7.516s-11.301-6.994-17.733-6.994c-9.794 0-17.733 6.496-17.733 14.51 0 4.006 3.523 11.93 3.523 11.93s9.313 2.58 14.21 2.58c9.794 0 17.733-6.497 17.733-14.51z" fill="#fff"/>
	<ellipse cx="541.16" cy="187.56" rx="11.747" ry="11.72" fill="#77A13F"/>
	<ellipse cx="542.53" cy="185.09" rx="8.061" ry="7.899" fill="#231F20"/>
	<ellipse cx="537.94" cy="191.2" rx="2.922" ry="2.728" fill="#fff"/>
	<path d="m557.46 177.92c-4.547-3.748-16.294-10.638-25.681-8.716-24.387 4.993-10.132 31.617-10.132 31.617h1.223s-11.604-23.183 10.133-28.298c8.163-1.921 23.757 7.162 23.757 7.162s1.196-1.354 0.7-1.765z" fill="#F15825" opacity=".1"/>
	<path d="m487.86 202.46c-0.926-7.566-7.174-13.993-15.061-13.993-6.614 0-13.8 8.188-13.8 8.188s-0.479 4.556-0.479 5.805c0 7.729 6.391 13.993 14.279 13.993 6.902 0 15.58-9.582 15.58-9.582s-0.402-3.452-0.519-4.411z" fill="#fff"/>
	<path d="m485.46 202.04c0-6.475-5.26-11.721-11.744-11.721-6.492 0-11.75 5.246-11.75 11.721 0 6.473 5.258 11.72 11.75 11.72 6.484 0 11.744-5.247 11.744-11.72z" fill="#77A13F"/>
	<ellipse cx="474.74" cy="199.88" rx="8.061" ry="7.9" fill="#231F20"/>
	<ellipse cx="470.53" cy="205.67" rx="2.922" ry="2.729" fill="#fff"/>
	<path d="m452.99 199.28c1.206-4.57 8.873-14.194 18.691-14.194 19.391 0 18.343 21.669 18.343 21.669s-0.046-20.48-18.517-19.195c-12.988 0.905-15.373 14.898-15.373 14.898s-3.428-2.098-3.144-3.178z" fill="#F15825" opacity=".1"/>
	<path d="m538.24 150.51c-4.186 0-7.129 1.152-11.004 2.582-1.939 0.715-8.7 0-8.05 3.018 0.369 1.715 2.53 2.033 3.818 2.567 1.648 0.686 3.114 1.631 4.929 1.8 3.632 0.335 6.219-2.227 9.254-3.504 2.061-0.866 4.656-1.094 6.989-0.883 1.722 0.157 6.636 1.543 5.989-1.349-0.82-3.673-9.073-4.507-12.101-4.406"/>
	<path d="m461.21 172.52c3.031 0 6.928 0.674 7.336-3.319 0.396-3.907-4.404-3.837-7.163-3.844-3.313-8e-3 -7.056 1.475-9.389 3.891-1.716 1.778-5.57 3.774-6.204 6.232-0.223 0.86-0.132 1.658 0.253 2.423 1.873 0.264 4.982-3.607 6.606-4.637 1.804-1.143 6.501-1.968 8.561-0.746"/>
	<path d="m452.01 120.77c-2.518 9.872-5.566 20.547-13.115 27.731-6.923 6.589-15.57 6.689-23.299 11.237 2.439 8.563 18.573 6.01 24.153 2.83 8.103-4.616 14.91-11.565 20.161-18.954 0.433 16.212-10.537 28.223-24.462 34.516 7.857-3.335 15.703-6.749 22.438-11.951 7.532-5.82 10.09-13.624 14.412-21.832 1.628 22.664-3.237 37.348-14.799 55.715 12.066 0.122 15.812-13.357 19.876-22.568 4.771-10.813 11.156-20.64 14.205-32.294 6.595 13.272-1.401 29.365-9.413 40.449 7.102-1.264 10.146-5.841 14.561-10.707 3.782-4.17 8.533-6.896 12.407-11.094 8.476-9.182 14.353-20.177 21.542-30.451-0.495 13.924 5.191 21.679 16.984 27.842 0.303-5.056-2.25-10.564 0.514-14.867 2.567 13.014 3.807 31.407 18.336 37.05-4.281-5.104-3.547-10.547-3.589-17.222 2.892 12.012 9.225 13.472 19.043 17.787-0.71-28.759-9.104-57.237-38.024-67.777-15.032-5.478-33.596-7.763-49.424-9.464-8.26-0.889-17.69-1.571-25.72 0.89-8.5 2.604-9.782 9.131-16.787 13.134"/>
	<ellipse cx="576.06" cy="192.99" rx="7.663" ry="17.986" fill="#F5B6A1"/>
		<path d="m496.99 242.89c1.623 1.315 6.364 0.551 8.238-0.178 4.03-1.565 5.429-2.228 9.372-0.559-0.039-1.168 0.798-2.101 1.211-2.87 2.429-0.624 4.863-1.226 7.301-1.806" fill="none" stroke="#F79B74" stroke-linecap="round" stroke-linejoin="round" stroke-miterlimit="10" stroke-width="1.44"/>
	<path d="m636.54 231.83h-0.235" fill="none" stroke="#000" stroke-miterlimit="10" stroke-width="1.44"/>
	<path d="m635.24 353.16s-0.014 0.69-0.072 1.641c0 0.072 0 0.145-0.016 0.217-0.042 0.662-0.1 1.425-0.187 2.145-0.014 0.13-0.042 0.245-0.059 0.361-1.569 9.027-29.374 10.41-37.512 10.008 0-0.793-0.302-1.901-0.805-3.255-0.203-0.563-0.448-1.167-0.721-1.813l-0.662-1.498c-2.103-4.666-5.155-10.498-6.625-14.934 0.029 1.643 0.015 4.335-0.043 7.833-0.015 0.446-0.015 0.923-0.028 1.398v0.014c-0.028 1.382-0.058 2.852-0.102 4.435v0.016c-0.028 1.238-0.058 2.547-0.1 3.916-0.131 4.853-0.318 10.426-0.548 16.445v0.014c-0.058 1.109-0.101 2.232-0.158 3.369-1.512 36.274-4.911 86.948-10.888 103.45 0 0 0 0.014-0.014 0.059-0.619 1.713-1.268 3.052-1.943 3.959-6.235 8.423-132.05-2.26-130.25-11.707 0.172-0.949 0.359-1.901 0.533-2.864 0.33-1.8 0.662-3.631 0.979-5.503 0.086-0.445 0.172-0.907 0.246-1.381 1.05-6.107 2.073-12.529 3.023-19.153 0.014-0.042 0.014-0.101 0.014-0.159 1.122-7.746 2.174-15.78 3.11-23.901 0.158-1.384 0.316-2.781 0.476-4.178v-0.014c0.028-0.23 0.043-0.462 0.072-0.692 0.159-1.41 0.302-2.822 0.459-4.233 0.333-3.225 0.65-6.451 0.938-9.676 0.271-2.837 0.518-5.674 0.748-8.496 0.303-3.702 0.576-7.373 0.821-11.017 0.087-1.253 0.158-2.49 0.23-3.729v-0.014c0.073-0.966 0.129-1.916 0.173-2.866 0.057-0.936 0.115-1.886 0.159-2.808 0.475-9.073 0.733-17.799 0.733-25.936-2.533 2.535-4.277 4.422-6.063 7.1 0 0 0 0.016-0.015 0.029-0.461 0.662-0.906 1.369-1.354 2.146-0.546 0.921-1.107 1.944-1.712 3.097v0.014c-0.29 0.533-0.577 1.108-0.879 1.699-2.967 5.876-37.815-5.473-35.727-19.929 0.1-0.663 0.26-1.383 0.489-2.175 0.33-1.21 0.821-2.549 1.454-4.004 0.303-0.748 0.662-1.512 1.037-2.318 0.029-0.043 0.043-0.072 0.043-0.072 0.777-1.626 1.698-3.369 2.736-5.184 1.742-3.096 3.831-6.422 6.162-9.791 5.012-7.287 11.133-14.833 17.396-21.039 0.245-0.23 0.489-0.475 0.734-0.705 3.456-3.355 6.927-6.266 10.311-8.496l0.014-0.016c3.845-2.549 7.532-4.189 10.829-4.549 0.316-0.044 0.636-0.058 0.936-0.073 3.3-0.114 6.235-0.158 8.857-0.114 4.998 0.057 8.856 0.373 11.866 0.906 0.014 0 0.014 0 0.028 0.015s0.014 0 0.029 0c13.838 2.448 9.445 9.317 13.737 15.84v0.016c0.95 1.438 2.317 2.865 4.405 4.219 16.56 10.741 28.253 11.448 45.418 1.31 1.324-0.792 2.391-1.612 3.254-2.447 7.547-7.358-0.432-16.488 16.705-19.714h0.027c1.527-0.288 3.227-0.533 5.17-0.734 2.866-0.259 6.207-0.433 10.138-0.461 0.548-0.014 1.096-0.014 1.671-0.014 4.089 0 7.934 0.704 11.533 2.001h0.016c4.076 1.44 7.833 3.629 11.29 6.321 0.058 0.058 0.114 0.101 0.173 0.158 2.275 1.8 4.405 3.831 6.408 6.034 1.654 1.814 3.197 3.758 4.65 5.773 6.049 8.396 10.454 18.261 13.133 27.332v0.014c0.23 0.721 0.433 1.455 0.634 2.176v0.014c0.101 0.374 0.202 0.749 0.287 1.123v0.015c0.203 0.777 0.391 1.541 0.563 2.304v0.015c0.504 2.188 0.878 4.276 1.138 6.265 0 0 0.015 0.028 0.028 0.1 0 0.029 0 0.059 0.015 0.087 0 0.043 0.015 0.101 0.029 0.158 0.027 0.375 0.071 0.734 0.13 1.108 0.014 0.059 0.014 0.116 0.014 0.158 0.179 1.724 0.28 3.352 0.28 4.835z" fill="#F79548"/>
	<path d="m472.49 288.23c-1.172 0.949-0.611 4.65 0 6.028 4.24 9.541 34.093 35.164 52.482 35.164 14.489 0 43.706-18.331 48.14-31.807 0.777-2.366 1.956-8.421 0-9.962-1.025-0.809-5.179 0.7-5.179 0.7s-2.598 5.856-3.202 7.702c-3.85 11.761-25.101 17.109-39.767 17.109-19.961 0-40.621-17.27-41.872-18.521-1.26-1.261 1.302-5.491 1.302-5.491s-9.584-2.802-11.904-0.922z" fill="#51B848"/>
	<path d="m481.47 289.93c28.823-6.812 23.146-28.122 23.146-28.122l45.201-14.849s-3.062 28.469 1.614 35.198c2.229 3.208 16.508 6.195 16.508 6.195 4.696 12.22-28.074 32.333-41.064 33.953-13.413 1.673-58.558-29.266-45.405-32.375z" fill="#F5B6A1"/>
	<path d="m411.96 344.59c7.133 17.306 36.123 20.393 36.123 20.393s0 9.903-25.337-2.667c-15.725-7.801-11.043-18.348-10.786-17.726z" fill="#51B848"/>
	<path d="m414.5 338.21s12.338 18.426 36.661 21.506c0 0-1.16 2.186-1.37 2.186-10.538 0-34.248-10.988-36.372-21.311-0.133-0.64 1.081-2.381 1.081-2.381z" fill="#51B848"/>
	<path d="m596.59 364.28s28.54 2.265 38.643-11.109c0 0-0.104 5.487-0.903 6.538-5.739 7.534-29.015 13.015-36.938 7.825-0.427-0.278-0.802-3.254-0.802-3.254z" fill="#51B848"/>
	<path d="m595.2 360.96s24.941-1.06 39.546-14.256c0 0 0.474 2.2 0 2.673-8.194 8.195-33.428 13.092-38.884 13.092l-0.662-1.509z" fill="#51B848"/>
	<path d="m575.9 362.01c-0.02 0.363-0.056 0.741-0.095 1.104-6e-3 0.396-0.011 0.793-0.034 1.188-0.601 10.753-9.201 19.014-19.198 18.454-10.012-0.56-17.621-9.729-17.02-20.481 0.023-0.396 0.061-0.791 0.099-1.185 5e-3 -0.365 0.011-0.745 0.03-1.109l0.689-12.305 36.218 2.027-0.689 12.307z" fill="#51B848"/>
	<path d="m574.2 362.47c-0.022 0.328-0.058 0.672-0.091 1.003-8e-3 0.362-0.016 0.723-0.037 1.08-0.596 9.776-8.455 17.243-17.539 16.688-9.099-0.556-15.973-8.924-15.377-18.698 0.023-0.359 0.06-0.717 0.096-1.076 6e-3 -0.332 0.013-0.678 0.03-1.008l0.686-11.183 32.915 2.012-0.683 11.182z" fill="#51B848"/>
	<path d="m572.53 362.79c-0.018 0.297-0.051 0.607-0.081 0.905-7e-3 0.323-0.013 0.646-0.034 0.972-0.538 8.797-7.608 15.517-15.784 15.02-8.189-0.502-14.379-8.033-13.842-16.829 0.02-0.323 0.055-0.646 0.089-0.968 5e-3 -0.301 9e-3 -0.611 0.027-0.908l0.614-10.065 29.627 1.812-0.616 10.061z" fill="#F79548"/>
		<rect transform="matrix(-.9981 -.061 .061 -.9981 1093.3 746.82)" x="542.69" y="355.41" width="30.74" height="2.637" fill="#51B848"/>
		<path d="m546.08 393.76c-3.498-4.319-7.589-6.667-12.256-7.013l-30.052-2.26c-1.195-0.102-2.533 0-4.046 0.301-8.192 2.06-12.557 6.683-13.104 13.867l-0.23 3.039c-0.461 6.048 0.821 10.124 3.831 12.227 1.944 2.26 7.242 3.715 15.882 4.362l13.206 0.993c2.174 0.173 4.305-0.115 6.396-0.849l-0.491 6.536c-0.114 1.556-0.446 2.707-0.995 3.457-0.661 0.921-2.188 1.296-4.593 1.122l-6.897-0.531c-1.44-0.102-2.477-0.42-3.095-0.966-1.095-0.619-1.527-2.361-1.311-5.213l-0.23-0.26-21.198-1.598-0.273 0.23-0.143 1.929c-0.175 2.391 0 4.436 0.517 6.137 2.71 6.867 8.151 10.612 16.33 11.217l24.235 1.828c4.133 0.316 7.675-0.273 10.613-1.758 5.257-2.908 8.049-6.522 8.367-10.813l2.13-28.238c0.173-2.302-0.692-4.88-2.593-7.746zm-19.311 10.483c-0.129 1.757-1.54 2.664-4.219 2.735l-11.391-0.862c-2.203-0.966-3.24-2.219-3.124-3.773l0.086-1.21c0.893-1.8 2.579-2.607 5.054-2.42l8.482 0.634c3.152 0.245 4.882 1.627 5.169 4.177l-0.057 0.719z" fill="#51B848"/>
		<path d="m565.24 362.78c-0.992-1.152-2.116-1.757-3.396-1.83l-8.225-0.389c-0.316-0.014-0.69 0.016-1.094 0.102-2.232 0.633-3.383 1.93-3.484 3.888l-0.028 0.835c-0.087 1.656 0.287 2.751 1.122 3.298 0.549 0.604 2.003 0.965 4.377 1.079l3.601 0.174c0.604 0.029 1.181-0.058 1.742-0.273l-0.085 1.785c-0.015 0.417-0.102 0.748-0.245 0.95-0.173 0.259-0.591 0.374-1.239 0.346l-1.885-0.101c-0.404-0.014-0.677-0.101-0.865-0.23-0.303-0.172-0.433-0.647-0.388-1.427l-0.059-0.056-5.804-0.29-0.071 0.06-0.028 0.531c-0.029 0.65 0.028 1.209 0.187 1.671 0.792 1.858 2.304 2.837 4.535 2.953l6.64 0.316c1.123 0.058 2.089-0.131 2.88-0.562 1.411-0.835 2.146-1.829 2.204-3.009l0.374-7.72c0.027-0.633-0.232-1.324-0.766-2.101zm-5.197 3.009c-0.015 0.475-0.402 0.735-1.123 0.778l-3.125-0.159c-0.604-0.245-0.893-0.575-0.879-1.008l0.015-0.331c0.23-0.504 0.691-0.734 1.367-0.691l2.319 0.102c0.863 0.042 1.34 0.417 1.44 1.108l-0.014 0.201z" fill="#51B848"/>
		<path d="m626.67 325.89l-3.543-8.985c-0.288-0.734-0.937-1.397-1.943-2.002-1.714-0.807-3.326-0.921-4.811-0.332l-9.575 3.76c-0.374 0.143-0.778 0.374-1.195 0.691-2.204 1.856-2.866 3.931-1.974 6.221l0.389 0.964c0.75 1.931 1.758 2.995 2.995 3.183 0.923 0.403 2.766 0.073 5.531-1.008l4.204-1.656c0.69-0.273 1.295-0.677 1.828-1.224l0.822 2.088c0.2 0.489 0.272 0.907 0.214 1.21-0.071 0.389-0.475 0.719-1.251 1.022l-2.189 0.864c-0.462 0.188-0.836 0.244-1.095 0.172-0.431-0.042-0.82-0.504-1.181-1.411l-0.115-0.043-6.752 2.649-0.045 0.116 0.245 0.618c0.302 0.749 0.647 1.354 1.066 1.801 1.857 1.713 4.089 2.045 6.681 1.022l7.719-3.04c1.324-0.518 2.317-1.223 3.01-2.102 1.182-1.684 1.498-3.21 0.965-4.578zm-10.757-3.428l-3.63 1.427c-0.82 0.029-1.324-0.202-1.525-0.706l-0.146-0.375c0-0.69 0.404-1.195 1.195-1.497l2.693-1.065c1.009-0.39 1.742-0.216 2.218 0.519l0.087 0.23c0.217 0.56-0.072 1.05-0.892 1.467z" fill="#51B848"/>
	<g fill="#51B848">
		<path d="m480.19 447.67l-9.287-3.484-0.058 0.016-3.6 9.619 0.029 0.059 3.6 1.338 0.057-0.014 1.469-3.947 5.141 1.93 0.059-0.028 0.863-2.273-0.028-0.059-5.141-1.929 0.475-1.269 5.645 2.116 0.057-0.014 0.75-2.002-0.031-0.059z"/>
		<path d="m490.99 451.19c-0.532-0.879-1.224-1.427-2.073-1.601l-5.442-1.209c-0.217-0.042-0.476-0.057-0.75-0.042-1.555 0.173-2.476 0.893-2.764 2.203l-0.994 4.507c-0.072 0.318-0.087 0.635-0.072 0.951 0.302 1.381 1.211 2.245 2.734 2.576l4.696 1.038c0.75 0.157 1.411 0.143 2.001-0.042 1.037-0.405 1.643-0.996 1.814-1.772l1.125-5.125c0.085-0.42 1e-3 -0.907-0.275-1.484zm-3.786 1.31l-0.794 3.6c-0.185 0.591-0.445 0.849-0.775 0.778l-2.319-0.506c-0.302-0.202-0.389-0.561-0.274-1.081l0.778-3.541c0.13-0.633 0.417-0.921 0.851-0.82l2.102 0.459c0.431 0.103 0.561 0.462 0.431 1.111z"/>
		<path d="m503.13 453.12c-0.575-0.852-1.295-1.339-2.16-1.47l-5.515-0.849c-0.216-0.045-0.461-0.045-0.75 0-1.54 0.258-2.419 1.05-2.62 2.36l-0.706 4.565c-0.043 0.316-0.043 0.635 0 0.951 0.375 1.367 1.341 2.173 2.881 2.405l4.765 0.733c0.75 0.115 1.412 0.057 1.975-0.174 1.021-0.459 1.583-1.094 1.699-1.872l0.808-5.183c0.056-0.431-0.061-0.92-0.377-1.466zm-3.686 1.539l-0.563 3.659c-0.144 0.591-0.388 0.862-0.72 0.82l-2.361-0.361c-0.303-0.171-0.418-0.532-0.346-1.05l0.561-3.586c0.102-0.663 0.36-0.951 0.793-0.877l2.131 0.331c0.432 0.056 0.606 0.418 0.505 1.064z"/>
		<path d="m516.44 453.68l-11.679-1.528-0.059 0.044-0.274 2.117 0.046 0.056 3.9 0.504-1.037 8.009 0.029 0.057 3.816 0.489 0.057-0.044 1.039-8.004 3.887 0.501 0.043-0.042 0.274-2.116-0.042-0.043z"/>
		<path d="m527.58 457.66l0.087-1.627c0.027-0.288 0-0.531-0.058-0.75-0.303-0.618-0.69-0.935-1.166-0.963l-9.073-0.534-0.056 0.044-0.591 10.227 0.042 0.042 9.073 0.532c0.23 0.014 0.445-0.015 0.66-0.073 0.635-0.33 0.965-0.762 0.994-1.296l0.146-2.489c0.014-0.204-0.029-0.434-0.129-0.693-0.319-0.532-0.665-0.818-1.038-0.849 0-0.028 0.057-0.045 0.188-0.059 0.56-0.143 0.864-0.647 0.921-1.512zm-3.601 3.76c-0.056 0.431-0.272 0.633-0.646 0.604l-0.014-0.015-2.521-0.159 0.1-1.654 2.464 0.143 0.331 0.073c0.231 0.086 0.332 0.316 0.303 0.705l-0.017 0.303zm0-3.844c-0.027 0.372-0.244 0.56-0.66 0.531l-2.29-0.131 0.085-1.669 2.448 0.144c0.259 0.014 0.403 0.188 0.446 0.518l-0.029 0.607z"/>
		<path d="m537.79 455.56c-0.172-0.762-0.259-1.15-0.301-1.15l-6.293 0.014c-1.483 6.249-2.291 9.706-2.435 10.369l3.946-0.015c0.028 0 0.071-0.145 0.114-0.402 0.103-0.952 0.174-1.428 0.217-1.428h2.692c0.014 0.115 0.029 0.174 0.059 0.174 0.13 1.094 0.216 1.641 0.272 1.641l3.902-0.015 0.028-0.014c-0.285-1.283-1.019-4.351-2.201-9.174zm-4.09 4.781l0.649-3.11h0.028l0.663 3.11h-1.34z"/>
		<path d="m551.14 460.95l-0.057-0.042-5.962 0.907-1.167-7.689-0.058-0.045-3.802 0.591-0.027 0.044 1.539 10.151 0.045 0.028 9.82-1.496 0.028-0.044-0.359-2.405z"/>
		<path d="m562.33 457.58l-0.059-0.031-5.702 1.974-2.549-7.343-0.058-0.03-3.628 1.254-0.045 0.056 3.371 9.708 0.057 0.015 9.374-3.256 0.029-0.042-0.79-2.305z"/>
	</g>
	<polygon points="489.86 438.59 489.33 442.1 491.93 444.53 488.42 445.11 486.91 448.33 485.28 445.17 481.75 444.73 484.24 442.2 483.58 438.72 486.75 440.3" fill="#51B848"/>
	<polygon points="515.28 374.85 514.75 378.36 517.34 380.79 513.84 381.37 512.32 384.59 510.69 381.43 507.16 380.99 509.66 378.46 508.99 374.97 512.16 376.56" fill="#51B848"/>
	<polygon points="515.28 329.98 514.75 333.49 517.34 335.92 513.84 336.5 512.32 339.72 510.69 336.56 507.16 336.12 509.66 333.59 508.99 330.1 512.16 331.69" fill="#51B848"/>
	<polygon points="544.15 377.91 543.61 381.42 546.21 383.85 542.7 384.43 541.19 387.65 539.56 384.5 536.03 384.06 538.53 381.52 537.86 378.04 541.03 379.62" fill="#51B848"/>
	<polygon points="531.8 353.17 531.26 356.68 533.86 359.11 530.35 359.69 528.84 362.91 527.21 359.75 523.68 359.31 526.18 356.78 525.5 353.29 528.68 354.88" fill="#51B848"/>
	<path d="m633.61 340.44v0.015l-1.887 0.302-1.512 3.211-1.628-3.153-3.527-0.433 2.492-2.533-0.662-3.485 3.166 1.585 2.074-1.139c0.23 0.721 0.433 1.455 0.634 2.176v0.014l-0.114 0.749 0.401 0.374v0.015c0.204 0.775 0.392 1.539 0.563 2.302z" fill="#51B848"/>
	<path d="m618.99 307.46l-1.453 3.082-1.644-3.153-3.527-0.433 2.506-2.533-0.532-2.736c1.654 1.814 3.197 3.757 4.65 5.773z" fill="#51B848"/>
	<polygon points="468.09 342.8 467.56 346.32 470.15 348.75 466.65 349.32 465.14 352.54 463.5 349.39 459.98 348.95 462.47 346.42 461.8 342.93 464.98 344.52" fill="#51B848"/>
	<polygon points="483.24 417.1 482.72 420.61 485.31 423.04 481.8 423.62 480.29 426.84 478.66 423.68 475.13 423.24 477.63 420.71 476.96 417.23 480.13 418.81" fill="#51B848"/>
	<polygon points="547.63 442.4 547.1 445.92 549.7 448.34 546.19 448.92 544.68 452.14 543.05 448.98 539.52 448.54 542.01 446.01 541.34 442.52 544.52 444.12" fill="#51B848"/>
	<polygon points="563.47 445.59 562.94 449.1 565.53 451.53 562.03 452.11 560.52 455.33 558.88 452.18 555.36 451.73 557.85 449.2 557.18 445.72 560.36 447.3" fill="#51B848"/>
	<polygon points="575.05 439.31 574.52 442.83 577.11 445.25 573.6 445.84 572.1 449.05 570.46 445.9 566.93 445.46 569.43 442.93 568.76 439.44 571.94 441.03" fill="#51B848"/>
	<polygon points="558.39 419 557.85 422.52 560.45 424.94 556.94 425.52 555.43 428.74 553.8 425.59 550.27 425.15 552.77 422.62 552.1 419.13 555.27 420.72" fill="#51B848"/>
	<polygon points="579.74 409.49 579.21 413 581.8 415.43 578.3 416.01 576.79 419.23 575.15 416.08 571.63 415.64 574.12 413.1 573.45 409.62 576.63 411.21" fill="#51B848"/>
	<polygon points="531.79 443.46 531.26 446.98 533.86 449.4 530.35 449.98 528.84 453.2 527.21 450.04 523.68 449.6 526.18 447.07 525.5 443.58 528.68 445.17" fill="#51B848"/>
	<polygon points="517.67 442.4 517.14 445.92 519.73 448.34 516.23 448.92 514.72 452.14 513.08 448.98 509.56 448.54 512.05 446.01 511.38 442.52 514.56 444.12" fill="#51B848"/>
	<polygon points="503.95 440.72 503.42 444.23 506.01 446.66 502.51 447.24 501 450.46 499.36 447.3 495.84 446.86 498.33 444.33 497.66 440.85 500.84 442.44" fill="#51B848"/>
	<polygon points="493.77 463.88 493.24 467.39 495.84 469.82 492.33 470.4 490.82 473.62 489.19 470.46 485.66 470.02 488.15 467.49 487.48 464 490.66 465.59" fill="#51B848"/>
	<polygon points="492.51 475.14 491.98 478.65 494.57 481.08 491.06 481.66 489.56 484.88 487.92 481.72 484.4 481.28 486.89 478.75 486.22 475.26 489.4 476.85" fill="#51B848"/>
	<polygon points="525.23 479.1 524.7 482.61 527.29 485.04 523.78 485.62 522.28 488.84 520.64 485.68 517.11 485.24 519.61 482.71 518.94 479.22 522.12 480.81" fill="#51B848"/>
	<polygon points="555.52 467.53 554.99 471.04 557.58 473.47 554.08 474.05 552.57 477.27 550.93 474.12 547.41 473.67 549.9 471.14 549.23 467.66 552.41 469.24" fill="#51B848"/>
	<polygon points="559.74 479.1 559.2 482.61 561.8 485.04 558.29 485.62 556.78 488.84 555.15 485.68 551.62 485.24 554.12 482.71 553.45 479.22 556.62 480.81" fill="#51B848"/>
	<polygon points="525.23 467.53 524.7 471.04 527.29 473.47 523.78 474.05 522.28 477.27 520.64 474.12 517.11 473.67 519.61 471.14 518.94 467.66 522.12 469.24" fill="#51B848"/>
	<polygon points="468.09 457 467.56 460.52 470.15 462.94 466.65 463.52 465.14 466.74 463.5 463.59 459.98 463.15 462.47 460.62 461.8 457.13 464.98 458.72" fill="#51B848"/>
	<polygon points="480.35 464.79 479.52 470.28 483.57 474.07 478.1 474.98 475.74 480.01 473.18 475.08 467.68 474.39 471.57 470.44 470.52 464.99 475.49 467.47" fill="#51B848"/>
	<path d="m460.92 470.42l-5.474 0.906-2.361 5.027-2.549-4.926-4.521-0.563c0.086-0.445 0.172-0.907 0.246-1.381l2.664-2.707-1.053-5.444 4.969 2.478 4.853-2.68-0.821 5.487 4.047 3.803z" fill="#51B848"/>
	<polygon points="461.84 440.72 461.01 446.21 465.06 450 459.59 450.91 457.23 455.94 454.68 451.01 449.16 450.32 453.06 446.37 452.02 440.92 456.98 443.4" fill="#51B848"/>
	<polygon points="478.46 427.18 477.63 432.67 481.68 436.46 476.2 437.37 473.84 442.4 471.29 437.47 465.78 436.78 469.68 432.83 468.63 427.38 473.6 429.86" fill="#51B848"/>
	<path d="m465.07 425.55l-5.484 0.906-2.349 5.027-2.562-4.94-2.262-0.271c0.158-1.384 0.316-2.781 0.476-4.178v-0.014l0.172-0.174-0.1-0.519c0.159-1.41 0.302-2.822 0.459-4.233l3.558 1.786 4.868-2.679-0.836 5.486 4.06 3.803z" fill="#51B848"/>
	<polygon points="478.46 406.75 477.63 412.24 481.68 416.04 476.2 416.94 473.84 421.97 471.29 417.04 465.78 416.35 469.68 412.4 468.63 406.95 473.6 409.43" fill="#51B848"/>
	<polygon points="479.46 389.63 478.63 395.12 482.69 398.91 477.21 399.82 474.85 404.85 472.3 399.92 466.79 399.23 470.69 395.28 469.64 389.83 474.6 392.31" fill="#51B848"/>
	<polygon points="483.82 370.37 482.99 375.86 487.04 379.65 481.56 380.56 479.21 385.59 476.65 380.66 471.14 379.97 475.04 376.02 473.99 370.56 478.96 373.05" fill="#51B848"/>
	<polygon points="503.51 366.05 502.68 371.54 506.73 375.33 501.26 376.24 498.9 381.27 496.34 376.34 490.83 375.65 494.73 371.7 493.68 366.24 498.65 368.73" fill="#51B848"/>
	<polygon points="521.45 360.76 520.62 366.25 524.67 370.05 519.2 370.95 516.84 375.98 514.28 371.05 508.77 370.36 512.67 366.41 511.62 360.96 516.59 363.44" fill="#51B848"/>
	<polygon points="536.77 366.05 535.94 371.54 539.99 375.33 534.51 376.24 532.15 381.27 529.6 376.34 524.09 375.65 527.99 371.7 526.94 366.24 531.9 368.73" fill="#51B848"/>
	<polygon points="487.52 351.37 486.7 356.86 490.75 360.66 485.27 361.57 482.91 366.59 480.36 361.67 474.85 360.98 478.75 357.02 477.7 351.57 482.66 354.06" fill="#51B848"/>
	<polygon points="470.51 354.86 469.68 360.35 473.73 364.15 468.25 365.06 465.9 370.08 463.34 365.15 457.83 364.46 461.73 360.51 460.68 355.06 465.64 357.54" fill="#51B848"/>
	<polygon points="483.62 332.8 482.79 338.29 486.84 342.09 481.36 343 479.01 348.02 476.45 343.1 470.94 342.41 474.84 338.45 473.79 333 478.75 335.48" fill="#51B848"/>
	<polygon points="507.33 345.56 506.5 351.05 510.55 354.84 505.08 355.75 502.72 360.78 500.16 355.85 494.65 355.16 498.55 351.21 497.5 345.76 502.47 348.24" fill="#51B848"/>
	<polygon points="524.93 339.1 524.1 344.59 528.15 348.38 522.67 349.29 520.32 354.32 517.76 349.39 512.25 348.7 516.15 344.74 515.1 339.29 520.06 341.78" fill="#51B848"/>
	<polygon points="544.78 331.49 543.96 336.98 548.01 340.77 542.53 341.68 540.18 346.71 537.62 341.78 532.11 341.09 536.01 337.14 534.96 331.68 539.92 334.17" fill="#51B848"/>
	<polygon points="565.17 330.6 564.34 336.09 568.39 339.88 562.92 340.79 560.56 345.82 558 340.89 552.5 340.2 556.39 336.24 555.34 330.79 560.31 333.28" fill="#51B848"/>
	<polygon points="585.79 331.49 584.96 336.98 589.01 340.77 583.54 341.68 581.18 346.71 578.62 341.78 573.12 341.09 577.01 337.14 575.96 331.68 580.93 334.17" fill="#51B848"/>
	<polygon points="573.12 314.76 572.29 320.25 576.34 324.04 570.87 324.95 568.51 329.98 565.95 325.05 560.45 324.36 564.34 320.41 563.3 314.96 568.26 317.44" fill="#51B848"/>
	<polygon points="588.73 300.8 587.9 306.3 591.95 310.09 586.48 311 584.12 316.02 581.56 311.1 576.06 310.41 579.95 306.45 578.9 301 583.87 303.48" fill="#51B848"/>
	<polygon points="604.63 339.1 603.8 344.59 607.85 348.38 602.38 349.29 600.02 354.32 597.46 349.39 591.96 348.7 595.85 344.74 594.8 339.29 599.77 341.78" fill="#51B848"/>
	<polygon points="596.68 317.59 595.85 323.08 599.9 326.87 594.43 327.78 592.07 332.8 589.52 327.88 584.01 327.19 587.9 323.23 586.86 317.78 591.82 320.27" fill="#51B848"/>
	<path d="m596.46 289.17l-4.966 0.82-2.362 5.025-2.549-4.924-5.516-0.691 2.188-2.218c0.548-0.014 1.096-0.014 1.671-0.014 4.09 1e-3 7.934 0.705 11.534 2.002z" fill="#51B848"/>
	<polygon points="623.87 338.21 623.04 343.7 627.09 347.49 621.62 348.4 619.26 353.42 616.7 348.5 611.19 347.81 615.09 343.85 614.04 338.4 619.01 340.89" fill="#51B848"/>
	<polygon points="607.97 295.38 607.14 300.86 611.19 304.66 605.72 305.57 603.36 310.6 600.8 305.67 595.3 304.98 599.19 301.02 598.14 295.57 603.11 298.06" fill="#51B848"/>
	<polygon points="502.16 325.19 501.33 330.68 505.38 334.48 499.91 335.39 497.55 340.41 494.99 335.49 489.48 334.8 493.38 330.84 492.33 325.39 497.3 327.88" fill="#51B848"/>
	<polygon points="486.41 314.76 485.58 320.25 489.63 324.04 484.15 324.95 481.8 329.98 479.24 325.05 473.73 324.36 477.63 320.41 476.58 314.96 481.54 317.44" fill="#51B848"/>
	<polygon points="472.33 302.98 471.5 308.48 475.56 312.27 470.08 313.18 467.72 318.2 465.17 313.28 459.66 312.59 463.56 308.63 462.51 303.18 467.47 305.66" fill="#51B848"/>
	<polygon points="464.38 322.37 463.56 327.86 467.61 331.65 462.13 332.56 459.77 337.59 457.22 332.66 451.71 331.97 455.6 328.02 454.56 322.56 459.52 325.05" fill="#51B848"/>
	<polygon points="452.81 340.41 451.98 345.9 456.03 349.7 450.56 350.6 448.2 355.63 445.64 350.7 440.13 350.02 444.03 346.06 442.98 340.61 447.95 343.09" fill="#51B848"/>
	<polygon points="436.91 332.8 436.08 338.29 440.13 342.09 434.66 343 432.3 348.02 429.74 343.1 424.23 342.41 428.13 338.45 427.08 333 432.05 335.48" fill="#51B848"/>
	<polygon points="444.86 317.59 444.03 323.08 448.08 326.87 442.6 327.78 440.25 332.8 437.69 327.88 432.18 327.19 436.08 323.23 435.03 317.78 440 320.27" fill="#51B848"/>
	<path d="m426.91 330.64l-5.484 0.907-2.349 5.026-1.843-3.558c1.742-3.096 3.831-6.422 6.162-9.791l-0.546 3.613 4.06 3.803z" fill="#51B848"/>
	<path d="m453.62 310.09l-5.487 0.907-2.361 5.026-2.55-4.926-5.515-0.69 3.903-3.961-0.821-4.262c0.245-0.23 0.489-0.475 0.734-0.705l4.003 2.001 4.867-2.679-0.834 5.486 4.061 3.803z" fill="#51B848"/>
	<path d="m466.47 293.95l-5.472 0.907-2.361 5.026-2.55-4.939-5.515-0.678 1.267-1.28 0.014-0.016c3.845-2.549 7.532-4.189 10.829-4.549l-0.26 1.727 4.048 3.802z" fill="#51B848"/>
	<path d="m468.77 387.26l-5.486 0.906-2.347 5.026-2.563-4.927-2.448-0.302c0.087-1.253 0.158-2.49 0.23-3.729v-0.014l0.604-0.604-0.432-2.262-0.605-3.183 0.765 0.375 4.19 2.104 4.865-2.68-0.835 5.486 4.062 3.804z" fill="#51B848"/>
	<path d="m465.07 406.52l-5.484 0.922-2.349 5.025-2.562-4.94-0.317-0.042c0.271-2.837 0.518-5.674 0.748-8.496l1.872 0.937 4.868-2.679-0.836 5.485 4.06 3.788z" fill="#51B848"/>
	<polygon points="511.42 468.75 510.59 474.24 514.64 478.03 509.16 478.94 506.81 483.97 504.25 479.04 498.74 478.35 502.64 474.4 501.59 468.94 506.56 471.43" fill="#51B848"/>
	<polygon points="545.85 472.4 545.02 477.89 549.07 481.68 543.59 482.59 541.24 487.62 538.68 482.69 533.17 482 537.07 478.04 536.02 472.6 540.98 475.08" fill="#51B848"/>
	<polygon points="573.12 468.75 572.29 474.24 576.34 478.03 570.87 478.94 568.51 483.97 565.96 479.04 560.45 478.35 564.34 474.4 563.3 468.94 568.26 471.43" fill="#51B848"/>
	<polygon points="577.84 448.71 577.01 454.2 581.06 457.99 575.59 458.9 573.23 463.93 570.68 459 565.16 458.31 569.06 454.36 568.01 448.91 572.98 451.39" fill="#51B848"/>
	<polygon points="562.3 428.96 561.48 434.45 565.53 438.25 560.05 439.16 557.69 444.18 555.14 439.25 549.63 438.56 553.53 434.61 552.48 429.16 557.44 431.64" fill="#51B848"/>
	<polygon points="579.61 421.35 578.78 426.84 582.83 430.64 577.36 431.55 575 436.57 572.44 431.65 566.93 430.96 570.83 427 569.78 421.55 574.75 424.03" fill="#51B848"/>
	<polygon points="566.37 406.75 565.54 412.24 569.6 416.04 564.12 416.94 561.76 421.97 559.2 417.04 553.7 416.35 557.59 412.4 556.54 406.95 561.51 409.43" fill="#51B848"/>
	<polygon points="580.78 391.53 579.95 397.02 584.01 400.82 578.53 401.72 576.17 406.75 573.62 401.82 568.11 401.13 572.01 397.18 570.96 391.73 575.92 394.21" fill="#51B848"/>
	<path d="m587.76 380.09v0.014c-0.058 1.109-0.101 2.232-0.158 3.369l-2.29 0.375-2.362 5.026-2.562-4.926-5.502-0.691 3.902-3.96-1.051-5.443 4.953 2.478 4.868-2.679-0.821 5.486 1.023 0.951z" fill="#51B848"/>
	<path d="m588.74 353.76l-0.23 1.513v0.014l-0.604 3.974 0.503 0.461v0.016c-0.028 1.238-0.058 2.547-0.1 3.916l-1.83 0.303-2.361 5.025-2.549-4.925-5.516-0.691 3.902-3.946-1.05-5.457 4.968 2.478 4.665-2.564 0.202-0.117z" fill="#51B848"/>
	<polygon points="562.79 385.59 561.96 391.08 566.01 394.87 560.53 395.78 558.18 400.81 555.62 395.88 550.11 395.19 554.01 391.23 552.96 385.78 557.93 388.27" fill="#51B848"/>
	<path d="m437.71 600.21c8.404 10.111 43.377 18.396 51.919 8.4 5.279-6.176 8.303-12.994 11.332-21.731 4.134-11.92 3.417 15.556 9.593 21.731 9.154 9.152 45.415 20.034 51.091 8.399 9.981-20.446 18.756-70.727 19.42-94.945 0.771-28.12-6.314-29.852-6.314-29.852s-61.576 13.68-130.52-11.039c-1.73-0.618-18.883 104.16-6.52 119.04z" fill="#1F451F"/>
	<path d="m445.04 476.36c82.665 22.055 131.67 10.565 131.67 10.565s-0.989 4.729-1.963 5.278c-25.136 14.195-120.84-1.357-130.52-11.039-0.629-0.628-0.044-5.034 0.816-4.804z" fill="#51B848"/>
	<path d="m434.58 591.95c28.352 24.316 59.726 10.41 59.726 10.41s-1.6 4.945-3.375 7.313c-6.913 9.228-46.831 0.291-53.8-8.885-1.336-1.758-2.551-8.838-2.551-8.838z" fill="#51B848"/>
	<path d="m507.19 602.43c28.352 24.316 56.11 10.884 56.11 10.884s-1.093 6.427-2.229 7.353c-8.387 6.827-44.861-0.223-51.831-9.398-1.335-1.759-2.05-8.839-2.05-8.839z" fill="#51B848"/>
	<path d="m439.67 504.13s12.871-14.513 14.863-19.521c0.383-0.963 5.525 0.576 5.441 1.61-0.574 7.028-21.523 26.224-21.523 26.224l1.219-8.313z" fill="#51B848"/>
	<path d="m554.44 495.76c-3.159 8.935 26.529 28.795 26.529 28.795l0.359-6.771s-20.245-12.387-20.886-21.256c-0.103-1.448-5.516-2.137-6.002-0.768z" fill="#51B848"/>
	<path d="m437.38 629.66c18.907 13.356 46.083 5.142 46.083 5.142s-6.778 26.635-8.336 35.653c-2.355 13.65-4.979 55.184-4.979 55.184l-31.493-2.955-2.055-63.102s-2.369-32.146 0.78-29.922z" fill="#F79548"/>
	<path d="m508.69 639.53c18.907 13.356 44.303 5.142 44.303 5.142s-4.998 26.635-6.557 35.653c-2.354 13.65-4.979 55.184-4.979 55.184l-31.493 1.14-2.055-67.195 0.781-29.924z" fill="#F79548"/>
	<path d="m448.88 758.69l0.206 2.032c0.185 1.805-1.125 3.413-2.931 3.598-0.901 0.092-1.751-0.188-2.397-0.715-0.663-0.539-1.107-1.314-1.199-2.217l-0.193-1.878c2.239-0.26 4.429-0.531 6.514-0.82z" stroke="#010101" stroke-miterlimit="10" stroke-width="1.512"/>
	<path d="m436.4 760.11l0.192 1.882c0.186 1.803-1.126 3.413-2.915 3.596-0.904 0.091-1.751-0.186-2.398-0.713-0.664-0.541-1.107-1.314-1.199-2.22l-0.202-1.969c2.185-0.177 4.37-0.353 6.522-0.576z" stroke="#010101" stroke-miterlimit="10" stroke-width="1.512"/>
	<path d="m409.86 761.94l0.16 1.58c0.185 1.805-1.127 3.412-2.93 3.598-0.904 0.092-1.751-0.188-2.398-0.715-0.648-0.541-1.093-1.314-1.185-2.217l-0.202-1.974c2.077-0.072 4.268-0.178 6.555-0.272z" stroke="#010101" stroke-miterlimit="10" stroke-width="1.512"/>
	<path d="m397.25 762.41l0.243 2.391c0.186 1.805-1.126 3.415-2.93 3.598-0.903 0.092-1.753-0.188-2.399-0.712-0.662-0.542-1.106-1.317-1.198-2.218l-0.301-2.948c1.839-5e-3 4.067-0.052 6.585-0.111z" stroke="#010101" stroke-miterlimit="10" stroke-width="1.512"/>
	<path d="m472.49 735.51c0.136 7.89-0.907 16.269-4.225 18.308-1.145 0.71-2.749 1.359-4.754 1.959-1.239 0.37-2.633 0.727-4.134 1.062-1.96 0.443-4.137 0.849-6.47 1.224-1.3 0.223-2.648 0.422-4.024 0.623-2.085 0.289-4.274 0.561-6.515 0.82-1.939 0.211-3.938 0.415-5.971 0.607-2.151 0.223-4.337 0.398-6.522 0.576-6.829 0.547-13.733 0.961-20.009 1.254-2.287 0.094-4.479 0.199-6.555 0.272-2.149 0.07-4.194 0.141-6.059 0.196-2.518 0.059-4.746 0.105-6.585 0.11-1.153 0.026-2.157 0.021-2.992 0.015-11.196-0.085-16.535-12.324-11.784-20.727 2.252-3.984 12.973-6.309 24.47-9.065 0.018 0.028 0.022 0.073 0.041 0.101 1.24 3.354 3.624 5.574 5.324 4.96 1.597-0.589 2.015-3.49 1.026-6.626 0.664-0.176 1.331-0.35 1.982-0.521 0.025 0.087 0.063 0.159 0.086 0.249 1.24 3.354 3.627 5.587 5.325 4.959 1.671-0.614 2.048-3.752 0.891-7.053 0.662-0.223 1.323-0.44 1.968-0.675 0.016 0.017 0.016 0.017 0.018 0.03 1.239 3.354 3.625 5.574 5.326 4.957 1.697-0.628 2.066-3.857 0.826-7.228-0.04-0.085-0.063-0.176-0.103-0.263 0.534-0.268 1.041-0.532 1.528-0.811 1.259 3.246 3.585 5.348 5.242 4.741 1.699-0.616 2.066-3.86 0.827-7.214-0.229-0.603-0.483-1.168-0.765-1.688 1.938-2.293 2.727-5.004 1.879-8.231-2.39-1.974-17.779-1.313-13.111-8.874 3.225-5.191 16.244-1.809 19.71 0.877 3.07 2.374 3.954 15.631 10.181 17.958 7.016 2.608 15.35 1.94 21.656-1.652 1.181 1.994 2.134 8.222 2.272 14.77z" fill="#1F451F"/>
	<path d="m406.75 731.18c-2.116 0.551-4.268 1.06-6.39 1.563" fill="none" stroke="#010101" stroke-miterlimit="10" stroke-width="1.512"/>
	<path d="m415.04 728.81c-2.028 0.663-4.142 1.275-6.302 1.847" fill="none" stroke="#010101" stroke-miterlimit="10" stroke-width="1.512"/>
	<path d="m423.07 725.64c-1.836 0.916-3.879 1.748-6.066 2.503" fill="none" stroke="#010101" stroke-miterlimit="10" stroke-width="1.512"/>
	<path d="m429.9 720.67c-1.285 1.561-3.104 2.934-5.306 4.16" fill="none" stroke="#010101" stroke-miterlimit="10" stroke-width="1.512"/>
	<path d="m459.37 756.84l0.286 2.799c0.186 1.802-1.125 3.412-2.93 3.598-0.902 0.091-1.752-0.186-2.414-0.71-0.648-0.544-1.091-1.32-1.185-2.223l-0.228-2.24c2.334-0.375 4.511-0.781 6.471-1.224z" stroke="#010101" stroke-miterlimit="10" stroke-width="1.512"/>
	<path d="m405.73 737.81c-1.7 0.614-4.085-1.605-5.323-4.96-0.02-0.027-0.022-0.072-0.041-0.103 2.122-0.504 4.273-1.013 6.39-1.563 0.989 3.135 0.571 6.037-1.026 6.626z" stroke="#51B848" stroke-miterlimit="10" stroke-width="1.512"/>
	<path d="m414.15 735.86c-1.698 0.63-4.084-1.604-5.325-4.957-0.023-0.09-0.061-0.162-0.086-0.249 2.16-0.571 4.273-1.184 6.302-1.847 1.157 3.303 0.778 6.441-0.891 7.053z" stroke="#51B848" stroke-miterlimit="10" stroke-width="1.512"/>
	<path d="m422.35 733.13c-1.699 0.614-4.085-1.603-5.324-4.959-1e-3 -0.014-1e-3 -0.014-0.019-0.028 2.188-0.755 4.23-1.587 6.066-2.503 0.04 0.087 0.064 0.176 0.104 0.263 1.241 3.368 0.872 6.599-0.827 7.227z" stroke="#51B848" stroke-miterlimit="10" stroke-width="1.512"/>
	<path d="m429.84 729.57c-1.656 0.606-3.983-1.495-5.242-4.741 2.201-1.227 4.021-2.6 5.306-4.16 0.281 0.52 0.536 1.085 0.766 1.688 1.238 3.353 0.87 6.597-0.83 7.213z" stroke="#51B848" stroke-miterlimit="10" stroke-width="1.512"/>
	<path d="m472.49 735.51c0.139 7.89-0.905 16.269-4.222 18.308-1.146 0.71-2.75 1.359-4.757 1.959-0.788-1.605-1.305-3.408-1.504-5.349-0.774-7.579 3.743-14.243 10.075-14.89 0.138-0.014 0.273-0.028 0.408-0.028z" fill="#010101"/>
	<path d="m521.53 768.11l0.325 2.019c0.29 1.788-0.922 3.473-2.714 3.762-0.894 0.145-1.759-0.082-2.435-0.57-0.695-0.501-1.186-1.249-1.328-2.145l-0.304-1.863c2.221-0.391 4.393-0.79 6.456-1.203z" stroke="#010101" stroke-miterlimit="10" stroke-width="1.512"/>
	<path d="m509.15 770.27l0.303 1.865c0.289 1.791-0.924 3.474-2.7 3.762-0.896 0.146-1.759-0.084-2.436-0.572-0.694-0.499-1.181-1.249-1.327-2.145l-0.316-1.954c2.171-0.304 4.342-0.609 6.476-0.956z" stroke="#010101" stroke-miterlimit="10" stroke-width="1.512"/>
	<path d="m482.78 773.65l0.252 1.567c0.289 1.791-0.924 3.474-2.714 3.762-0.896 0.146-1.758-0.084-2.436-0.569-0.679-0.504-1.167-1.251-1.312-2.146l-0.317-1.957c2.068-0.195 4.252-0.429 6.527-0.657z" stroke="#010101" stroke-miterlimit="10" stroke-width="1.512"/>
	<path d="m470.21 774.86l0.384 2.372c0.291 1.793-0.923 3.476-2.714 3.764-0.896 0.146-1.76-0.084-2.438-0.569-0.691-0.502-1.182-1.252-1.325-2.145l-0.475-2.928c1.836-0.11 4.06-0.288 6.568-0.494z" stroke="#010101" stroke-miterlimit="10" stroke-width="1.512"/>
	<path d="m543.74 743.6c0.599 7.868 0.049 16.291-3.144 18.522-1.102 0.775-2.664 1.519-4.632 2.236-1.216 0.442-2.587 0.879-4.063 1.301-1.931 0.558-4.08 1.09-6.387 1.601-1.285 0.3-2.617 0.576-3.981 0.857-2.063 0.413-4.235 0.812-6.455 1.202-1.923 0.324-3.907 0.645-5.925 0.957-2.135 0.347-4.306 0.651-6.477 0.956-6.787 0.944-13.654 1.767-19.902 2.426-2.275 0.228-4.459 0.462-6.526 0.656-2.144 0.194-4.179 0.387-6.038 0.551-2.508 0.206-4.732 0.384-6.567 0.494-1.148 0.094-2.151 0.15-2.985 0.192-11.181 0.569-17.228-11.332-12.979-19.999 2.015-4.111 12.58-7.06 23.896-10.486 0.021 0.026 0.027 0.073 0.049 0.101 1.434 3.274 3.943 5.352 5.604 4.637 1.56-0.683 1.808-3.601 0.637-6.676 0.653-0.211 1.309-0.426 1.948-0.635 0.031 0.087 0.07 0.154 0.102 0.244 1.434 3.276 3.947 5.364 5.605 4.638 1.633-0.71 1.825-3.867 0.475-7.092 0.65-0.261 1.298-0.519 1.926-0.79 0.019 0.017 0.019 0.017 0.02 0.03 1.434 3.274 3.946 5.351 5.606 4.636 1.659-0.727 1.839-3.973 0.402-7.263-0.045-0.082-0.073-0.171-0.117-0.256 0.517-0.3 1.008-0.593 1.479-0.899 1.446 3.166 3.891 5.13 5.511 4.425 1.66-0.715 1.836-3.976 0.402-7.252-0.265-0.586-0.551-1.134-0.862-1.638 1.8-2.402 2.429-5.154 1.393-8.325-2.5-1.831-17.825-0.27-13.608-8.091 2.914-5.374 16.11-2.761 19.729-0.283 3.203 2.191 4.862 15.372 11.215 17.332 7.157 2.193 15.438 1.038 21.521-2.918 1.288 1.919 2.608 8.078 3.128 14.609z" fill="#1F451F"/>
	<path d="m477.86 743.12c-2.08 0.676-4.197 1.311-6.287 1.937" fill="none" stroke="#010101" stroke-miterlimit="10" stroke-width="1.512"/>
	<path d="m486 740.28c-1.986 0.781-4.06 1.515-6.184 2.213" fill="none" stroke="#010101" stroke-miterlimit="10" stroke-width="1.512"/>
	<path d="m493.83 736.63c-1.779 1.024-3.769 1.974-5.91 2.854" fill="none" stroke="#010101" stroke-miterlimit="10" stroke-width="1.512"/>
	<path d="m500.36 731.27c-1.189 1.633-2.925 3.112-5.051 4.465" fill="none" stroke="#010101" stroke-miterlimit="10" stroke-width="1.512"/>
	<path d="m531.9 765.65l0.449 2.777c0.292 1.79-0.924 3.473-2.713 3.762-0.896 0.145-1.76-0.08-2.451-0.565-0.68-0.506-1.168-1.254-1.314-2.149l-0.357-2.224c2.306-0.511 4.456-1.043 6.386-1.601z" stroke="#010101" stroke-miterlimit="10" stroke-width="1.512"/>
	<path d="m477.23 749.8c-1.663 0.715-4.175-1.364-5.605-4.637-0.02-0.027-0.028-0.074-0.048-0.103 2.09-0.626 4.207-1.261 6.287-1.937 1.173 3.076 0.926 5.994-0.634 6.677z" stroke="#51B848" stroke-miterlimit="10" stroke-width="1.512"/>
	<path d="m485.52 747.37c-1.658 0.729-4.171-1.362-5.605-4.636-0.031-0.087-0.073-0.157-0.103-0.244 2.124-0.698 4.197-1.432 6.184-2.213 1.35 3.228 1.155 6.385-0.476 7.093z" stroke="#51B848" stroke-miterlimit="10" stroke-width="1.512"/>
	<path d="m493.55 744.15c-1.662 0.713-4.175-1.361-5.607-4.638-1e-3 -0.015-1e-3 -0.015-0.021-0.028 2.142-0.881 4.131-1.83 5.91-2.854 0.045 0.087 0.074 0.173 0.118 0.258 1.437 3.288 1.257 6.534-0.4 7.262z" stroke="#51B848" stroke-miterlimit="10" stroke-width="1.512"/>
	<path d="m500.82 740.16c-1.616 0.705-4.063-1.259-5.511-4.425 2.126-1.353 3.861-2.832 5.051-4.465 0.313 0.504 0.602 1.052 0.865 1.638 1.433 3.277 1.256 6.537-0.405 7.252z" stroke="#51B848" stroke-miterlimit="10" stroke-width="1.512"/>
	<path d="m543.74 743.6c0.602 7.868 0.051 16.291-3.142 18.522-1.101 0.775-2.665 1.519-4.634 2.236-0.88-1.557-1.501-3.326-1.814-5.253-1.217-7.519 2.9-14.438 9.186-15.454 0.135-0.021 0.268-0.044 0.404-0.051z" fill="#010101"/>
	<path d="m590.28 502.72c-2.423 1.922-4.391 4.158-6.872 6.052-1.991 1.521-6.565 4.994-4.429 7.91 2.302 3.147 15.182-0.944 17.529-2.951-1.307 4.395-9.667 27.565-3.753 30.835 2.622 1.448 10.466-18.226 10.586-16.812 0.136 1.626-10.056 23.257-3.674 25.936 2.739 1.148 9.375-13.894 10.09-16.212 0.354-1.148-4.013 17.618-3.111 21.333 0.781 3.236 2.966 2.022 4.187-0.286 1.41-2.655 4.496-19.066 4.428-17.498-0.07 1.689-2.645 12.799 0.572 13.521 2.2 0.882 4.489-8.013 5.321-13.167 0.894-5.543 2.229-11.135 1.993-16.802-0.386-9.279-3.217-20.501-12.676-23.933-7.277-2.642-15.699-5.646-20.634 2.386" fill="#F5B6A1"/>
			<path d="m324.46 389.09c21.628-25.615 18.437-63.885-7.125-85.47-25.565-21.583-63.825-18.313-85.452 7.303-21.628 25.615-18.441 63.882 7.124 85.468 25.563 21.583 63.827 18.314 85.453-7.301z" fill="#FFFCDB"/>
			<path d="m291.3 335.05c-0.188-0.015-0.81-0.067-1.746-0.146-5.293-0.454-20.493-1.769-21.586-1.866-0.02 0.047-0.055 0.128-0.096 0.228-8e-3 0.03-0.022 0.057-0.036 0.097-1.13 2.774-8.408 20.678-8.868 21.803 0.738 0.622 10.125 8.55 15.033 12.689 1.121 0.951 2.014 1.702 2.514 2.124 0.181 0.155 0.315 0.269 0.383 0.324 1.029-0.645 17.457-10.824 20.006-12.4 0.033-0.021 0.056-0.039 0.086-0.051 0.091-0.059 0.169-0.103 0.211-0.129-0.281-1.066-4.122-15.829-5.458-20.973-0.238-0.908-0.398-1.517-0.443-1.7z" fill="#010101"/>
			<path d="m294.7 301.7c0.068 0.127 0.194 0.357 0.36 0.647 0.453 0.834 1.213 2.24 2.121 3.909 2.168 3.977 5.127 9.418 6.49 11.925 0.414 0.762 0.684 1.255 0.735 1.349 0.108 0.04 0.635 0.22 1.453 0.5 2.649 0.911 8.356 2.867 12.617 4.322 1.722 0.59 3.206 1.102 4.159 1.428 0.439 0.148 0.766 0.263 0.948 0.322 0.214-1.054 1.122-5.644 1.878-9.463 0.291-1.454 0.559-2.79 0.755-3.785-2.557-3.289-5.484-6.37-8.786-9.159-3.313-2.798-6.847-5.169-10.525-7.132-0.905 0.381-2.125 0.889-3.451 1.448-3.528 1.486-7.789 3.282-8.754 3.689z" fill="#010101"/>
			<path d="m329.28 351.04c-0.102 0.102-0.267 0.262-0.467 0.476-0.627 0.649-1.738 1.792-3.057 3.143-3.682 3.789-9 9.261-10.331 10.632-0.163 0.167-0.272 0.279-0.304 0.316-6e-3 0.153-0.036 1.146-0.076 2.623-0.095 3.207-0.25 8.671-0.368 12.717-0.054 1.917-0.096 3.516-0.12 4.387-6e-3 0.248-0.018 0.455-0.021 0.573 1.029-0.066 5.67-0.376 9.642-0.649 1.392-0.088 2.684-0.183 3.727-0.242 5.127-7.281 8.44-15.376 9.998-23.711-0.678-0.81-1.527-1.813-2.427-2.89-2.561-3.039-5.54-6.59-6.196-7.375z" fill="#010101"/>
			<path d="m293.2 398.49c-0.025-0.02-0.074-0.04-0.11-0.056-0.576-0.268-2.089-0.973-4.024-1.879-5.338-2.489-13.831-6.455-14.28-6.663-0.45 0.141-8.614 2.72-14.234 4.5-1.738 0.54-3.222 1.016-4.175 1.315-0.447 0.145-0.777 0.243-0.953 0.305 0.394 0.911 2.164 5.007 3.729 8.643 0.549 1.276 1.076 2.504 1.517 3.513 8.397 2.531 17.212 3.195 25.788 2.028 0.521-0.886 1.153-1.997 1.836-3.187 2.018-3.5 4.392-7.633 4.906-8.519z" fill="#010101"/>
			<path d="m237.27 320.46c0 0.072 9e-3 0.164 0.014 0.216 0.484-0.094 2.025-0.402 4.054-0.805 4.008-0.805 9.925-1.986 13.292-2.655 1.449-0.288 2.43-0.479 2.577-0.513 0.029-0.04 0.122-0.167 0.257-0.354 1.18-1.606 6.042-8.265 9.16-12.527 1.266-1.725 2.241-3.059 2.554-3.492 5e-3 -5e-3 0.015-0.017 0.021-0.023-0.935-0.544-5.309-3.116-8.85-5.188-1.243-0.728-2.389-1.405-3.241-1.898-7.771 2.873-15.042 7.359-21.248 13.435 0.096 0.956 0.235 2.264 0.38 3.709 0.395 3.89 0.881 8.696 1.03 10.095z" fill="#010101"/>
			<path d="m237.23 380.66c0.022-0.158 0.063-0.439 0.113-0.816 0.132-0.934 0.335-2.45 0.584-4.238 0.567-4.07 1.317-9.533 1.754-12.646 0.188-1.358 0.311-2.278 0.326-2.425-0.021-0.028-0.079-0.115-0.176-0.253-1.035-1.503-6.146-8.886-9.177-13.275-1.097-1.58-1.922-2.772-2.193-3.169-0.099 0.086-0.245 0.218-0.434 0.376-1.354 1.168-4.781 4.115-7.552 6.503-1.094 0.941-2.09 1.787-2.793 2.407 0.428 8.457 2.586 16.817 6.477 24.481 1.026 0.247 2.334 0.546 3.724 0.87 3.854 0.905 8.352 1.954 9.347 2.185z" fill="#010101"/>
		<path d="m309.4 402.34c-3.68-0.586-7.883 0.206-11.777-1.111-3.229-1.092-7.062-3.186-9.799 0.215-4.716 5.858 8.807 8.65 11.696 9.254-5.448 2.006-21.149-7.144-24.646-6.266-3.561 0.895-3.423 4.936-1.068 7.07 2.367 2.148 6.32 3.047 9.293 4.068-1.625 0.023-13.854-3.81-16.218-4.296-1.731-0.354-3.733-0.598-5.05 0.975-1.296 1.548-0.814 4.064 0.579 5.271 1.865 1.616 21.427 11.675 42.732 2.478 16.621-7.175 17.469-11.53 18.389-14.701 1.598-5.505-4.648-6.923-9.315-6.172-3.272 0.529-6.668 2.671-9.817 3.753" fill="#F5B6A1"/>
</svg>
